<mxfile host="app.diagrams.net" modified="2023-08-11T20:59:19.584Z" agent="Mozilla/5.0 (X11; Linux x86_64; rv:108.0) Gecko/20100101 Firefox/108.0" etag="7GHxa8DcPYKr-OfRVybL" version="21.6.8" type="device">
  <diagram name="Page-1" id="aDgRZFvFXDjg_jGfRXhe">
    <mxGraphModel dx="2382" dy="775" grid="1" gridSize="10" guides="1" tooltips="1" connect="1" arrows="1" fold="1" page="1" pageScale="1" pageWidth="827" pageHeight="1169" math="0" shadow="0">
      <root>
        <mxCell id="0" />
        <mxCell id="1" parent="0" />
        <mxCell id="ziAq5ncUOEXPv-bApJY8-1" value="" style="shape=umlLifeline;perimeter=lifelinePerimeter;whiteSpace=wrap;html=1;container=1;dropTarget=0;collapsible=0;recursiveResize=0;outlineConnect=0;portConstraint=eastwest;newEdgeStyle={&quot;edgeStyle&quot;:&quot;elbowEdgeStyle&quot;,&quot;elbow&quot;:&quot;vertical&quot;,&quot;curved&quot;:0,&quot;rounded&quot;:0};participant=umlActor;" parent="1" vertex="1">
          <mxGeometry x="-220" y="190" width="20" height="1530" as="geometry" />
        </mxCell>
        <mxCell id="ziAq5ncUOEXPv-bApJY8-2" value="Sistema" style="shape=umlLifeline;perimeter=lifelinePerimeter;whiteSpace=wrap;html=1;container=1;dropTarget=0;collapsible=0;recursiveResize=0;outlineConnect=0;portConstraint=eastwest;newEdgeStyle={&quot;edgeStyle&quot;:&quot;elbowEdgeStyle&quot;,&quot;elbow&quot;:&quot;vertical&quot;,&quot;curved&quot;:0,&quot;rounded&quot;:0};" parent="1" vertex="1">
          <mxGeometry x="710" y="220" width="100" height="1500" as="geometry" />
        </mxCell>
        <mxCell id="en180CTn0l9zymGrBvhz-39" value="LOOP" style="shape=umlFrame;whiteSpace=wrap;html=1;pointerEvents=0;fillColor=#dae8fc;strokeColor=#6c8ebf;" parent="1" vertex="1">
          <mxGeometry x="-360" y="250" width="1220" height="1430" as="geometry" />
        </mxCell>
        <mxCell id="9RpX-Flty9WhFYptsFqv-2" value="&lt;h1&gt;Business Rules&lt;br&gt;&lt;/h1&gt;&lt;div&gt;1) Nella prima operazione, se Periodo è specificato, allora uno solo tra NumOccorrenze e DataFineRicorrenza può essere specificato.&lt;br&gt; &lt;/div&gt;" style="text;html=1;strokeColor=none;fillColor=none;spacing=5;spacingTop=-20;whiteSpace=wrap;overflow=hidden;rounded=0;" parent="1" vertex="1">
          <mxGeometry x="1040" y="240" width="570" height="480" as="geometry" />
        </mxCell>
        <mxCell id="en180CTn0l9zymGrBvhz-40" value="" style="group" parent="1" vertex="1" connectable="0">
          <mxGeometry x="-290" y="270" width="1690" height="1269.6" as="geometry" />
        </mxCell>
        <mxCell id="en180CTn0l9zymGrBvhz-18" value="" style="group" parent="en180CTn0l9zymGrBvhz-40" vertex="1" connectable="0">
          <mxGeometry x="30" width="1060" height="88.08080808080808" as="geometry" />
        </mxCell>
        <mxCell id="ziAq5ncUOEXPv-bApJY8-3" value="creazioneEvento(noteIniziali, cliente, dataInizio, dataFine, descrizione, tipologia, numeroPartecipanti)" style="html=1;verticalAlign=bottom;endArrow=block;edgeStyle=elbowEdgeStyle;elbow=vertical;curved=0;rounded=0;" parent="en180CTn0l9zymGrBvhz-18" source="ziAq5ncUOEXPv-bApJY8-1" target="ziAq5ncUOEXPv-bApJY8-2" edge="1">
          <mxGeometry width="80" relative="1" as="geometry">
            <mxPoint x="80" as="sourcePoint" />
            <mxPoint x="500" y="11.01010101010101" as="targetPoint" />
            <Array as="points">
              <mxPoint x="760" y="33.03030303030303" />
              <mxPoint x="50" />
            </Array>
          </mxGeometry>
        </mxCell>
        <mxCell id="ziAq5ncUOEXPv-bApJY8-4" value="nuovo evento" style="html=1;verticalAlign=bottom;endArrow=none;edgeStyle=elbowEdgeStyle;elbow=vertical;curved=0;rounded=0;startArrow=open;startFill=0;endFill=0;dashed=1;" parent="en180CTn0l9zymGrBvhz-18" source="ziAq5ncUOEXPv-bApJY8-1" target="ziAq5ncUOEXPv-bApJY8-2" edge="1">
          <mxGeometry width="80" relative="1" as="geometry">
            <mxPoint x="630" y="187.17171717171718" as="sourcePoint" />
            <mxPoint x="710" y="187.17171717171718" as="targetPoint" />
            <Array as="points">
              <mxPoint x="760" y="66.06060606060606" />
              <mxPoint x="550" y="44.04040404040404" />
            </Array>
          </mxGeometry>
        </mxCell>
        <mxCell id="en180CTn0l9zymGrBvhz-37" value="LOOP" style="shape=umlFrame;whiteSpace=wrap;html=1;pointerEvents=0;fillColor=#dae8fc;strokeColor=#6c8ebf;" parent="en180CTn0l9zymGrBvhz-40" vertex="1">
          <mxGeometry x="-3" y="350" width="1120" height="620" as="geometry" />
        </mxCell>
        <mxCell id="DYl_nhM4-Qo1yMT7ztg8-1" value="" style="group" vertex="1" connectable="0" parent="en180CTn0l9zymGrBvhz-40">
          <mxGeometry x="10" y="88.08" width="1070" height="110" as="geometry" />
        </mxCell>
        <mxCell id="DYl_nhM4-Qo1yMT7ztg8-4" value="LOOP" style="shape=umlFrame;whiteSpace=wrap;html=1;pointerEvents=0;fillColor=#dae8fc;strokeColor=#6c8ebf;swimlaneFillColor=none;gradientColor=none;shadow=0;" vertex="1" parent="DYl_nhM4-Qo1yMT7ztg8-1">
          <mxGeometry width="1070" height="110" as="geometry" />
        </mxCell>
        <mxCell id="en180CTn0l9zymGrBvhz-21" value="" style="group" parent="en180CTn0l9zymGrBvhz-40" vertex="1" connectable="0">
          <mxGeometry x="15" y="226.00484848484848" width="1070" height="88.08080808080808" as="geometry" />
        </mxCell>
        <mxCell id="en180CTn0l9zymGrBvhz-9" value="operazione completata" style="html=1;verticalAlign=bottom;endArrow=none;edgeStyle=elbowEdgeStyle;elbow=vertical;curved=0;rounded=0;startArrow=open;startFill=0;endFill=0;dashed=1;" parent="en180CTn0l9zymGrBvhz-21" edge="1" target="ziAq5ncUOEXPv-bApJY8-2">
          <mxGeometry width="80" relative="1" as="geometry">
            <mxPoint x="65" y="65.99515151515152" as="sourcePoint" />
            <mxPoint x="1015" y="66.06060606060606" as="targetPoint" />
            <Array as="points">
              <mxPoint x="545" y="66.06060606060606" />
            </Array>
          </mxGeometry>
        </mxCell>
        <mxCell id="en180CTn0l9zymGrBvhz-20" value="OPT" style="shape=umlFrame;whiteSpace=wrap;html=1;pointerEvents=0;fillColor=#d5e8d4;strokeColor=#82b366;" parent="en180CTn0l9zymGrBvhz-21" vertex="1">
          <mxGeometry x="-10" width="1080" height="88.08" as="geometry" />
        </mxCell>
        <mxCell id="en180CTn0l9zymGrBvhz-36" value="" style="group" parent="en180CTn0l9zymGrBvhz-40" vertex="1" connectable="0">
          <mxGeometry x="40" y="400" width="1060" height="356.80999999999995" as="geometry" />
        </mxCell>
        <mxCell id="en180CTn0l9zymGrBvhz-25" value="" style="group" parent="en180CTn0l9zymGrBvhz-36" vertex="1" connectable="0">
          <mxGeometry y="253.22" width="1060" height="103.59" as="geometry" />
        </mxCell>
        <mxCell id="en180CTn0l9zymGrBvhz-14" value="assegnazioneRuolo(Disponibilità, Ruolo)" style="html=1;verticalAlign=bottom;endArrow=block;edgeStyle=elbowEdgeStyle;elbow=vertical;curved=0;rounded=0;movable=1;resizable=1;rotatable=1;deletable=1;editable=1;locked=0;connectable=1;" parent="en180CTn0l9zymGrBvhz-25" edge="1">
          <mxGeometry width="80" relative="1" as="geometry">
            <mxPoint x="50" y="46.04" as="sourcePoint" />
            <mxPoint x="1020" y="46.04" as="targetPoint" />
            <Array as="points">
              <mxPoint x="640" y="46.04" />
              <mxPoint x="571.14" y="92.08" />
            </Array>
          </mxGeometry>
        </mxCell>
        <mxCell id="en180CTn0l9zymGrBvhz-15" value="operazione completata" style="html=1;verticalAlign=bottom;endArrow=none;edgeStyle=elbowEdgeStyle;elbow=vertical;curved=0;rounded=0;startArrow=classic;startFill=1;endFill=0;movable=1;resizable=1;rotatable=1;deletable=1;editable=1;locked=0;connectable=1;" parent="en180CTn0l9zymGrBvhz-25" edge="1">
          <mxGeometry width="80" relative="1" as="geometry">
            <mxPoint x="50" y="73.664" as="sourcePoint" />
            <mxPoint x="1020" y="73.664" as="targetPoint" />
            <Array as="points">
              <mxPoint x="550" y="73.664" />
            </Array>
          </mxGeometry>
        </mxCell>
        <mxCell id="en180CTn0l9zymGrBvhz-24" value="LOOP" style="shape=umlFrame;whiteSpace=wrap;html=1;pointerEvents=0;fillColor=#dae8fc;strokeColor=#6c8ebf;" parent="en180CTn0l9zymGrBvhz-25" vertex="1">
          <mxGeometry width="1060" height="103.59" as="geometry" />
        </mxCell>
        <mxCell id="en180CTn0l9zymGrBvhz-26" value="" style="group" parent="en180CTn0l9zymGrBvhz-36" vertex="1" connectable="0">
          <mxGeometry y="115.1" width="1060" height="115.1" as="geometry" />
        </mxCell>
        <mxCell id="en180CTn0l9zymGrBvhz-12" value="approvazioneMenu(Servizio)" style="html=1;verticalAlign=bottom;endArrow=block;edgeStyle=elbowEdgeStyle;elbow=vertical;curved=0;rounded=0;movable=1;resizable=1;rotatable=1;deletable=1;editable=1;locked=0;connectable=1;" parent="en180CTn0l9zymGrBvhz-26" edge="1">
          <mxGeometry width="80" relative="1" as="geometry">
            <mxPoint x="50" y="57.55" as="sourcePoint" />
            <mxPoint x="1020" y="57.55" as="targetPoint" />
            <Array as="points">
              <mxPoint x="640" y="57.55" />
              <mxPoint x="571.14" y="103.59" />
            </Array>
          </mxGeometry>
        </mxCell>
        <mxCell id="en180CTn0l9zymGrBvhz-13" value="operazione completata" style="html=1;verticalAlign=bottom;endArrow=none;edgeStyle=elbowEdgeStyle;elbow=vertical;curved=0;rounded=0;startArrow=classic;startFill=1;endFill=0;movable=1;resizable=1;rotatable=1;deletable=1;editable=1;locked=0;connectable=1;" parent="en180CTn0l9zymGrBvhz-26" edge="1">
          <mxGeometry width="80" relative="1" as="geometry">
            <mxPoint x="50" y="85.17399999999999" as="sourcePoint" />
            <mxPoint x="1020" y="85.17399999999999" as="targetPoint" />
            <Array as="points">
              <mxPoint x="550" y="85.17399999999999" />
            </Array>
          </mxGeometry>
        </mxCell>
        <mxCell id="en180CTn0l9zymGrBvhz-23" value="LOOP" style="shape=umlFrame;whiteSpace=wrap;html=1;pointerEvents=0;fillColor=#dae8fc;strokeColor=#6c8ebf;" parent="en180CTn0l9zymGrBvhz-26" vertex="1">
          <mxGeometry width="1060" height="115.1" as="geometry" />
        </mxCell>
        <mxCell id="en180CTn0l9zymGrBvhz-27" value="" style="group" parent="en180CTn0l9zymGrBvhz-36" vertex="1" connectable="0">
          <mxGeometry width="1060" height="92.08" as="geometry" />
        </mxCell>
        <mxCell id="en180CTn0l9zymGrBvhz-10" value="prenotazionePersonale(Disponibilità, Servizio)" style="html=1;verticalAlign=bottom;endArrow=block;edgeStyle=elbowEdgeStyle;elbow=vertical;curved=0;rounded=0;movable=1;resizable=1;rotatable=1;deletable=1;editable=1;locked=0;connectable=1;" parent="en180CTn0l9zymGrBvhz-27" edge="1">
          <mxGeometry width="80" relative="1" as="geometry">
            <mxPoint x="45" y="34.53" as="sourcePoint" />
            <mxPoint x="1015" y="34.53" as="targetPoint" />
            <Array as="points">
              <mxPoint x="635" y="34.53" />
              <mxPoint x="566.14" y="80.57" />
            </Array>
          </mxGeometry>
        </mxCell>
        <mxCell id="en180CTn0l9zymGrBvhz-11" value="disponibilità prenotata" style="html=1;verticalAlign=bottom;endArrow=none;edgeStyle=elbowEdgeStyle;elbow=vertical;curved=0;rounded=0;startArrow=classic;startFill=1;endFill=0;movable=1;resizable=1;rotatable=1;deletable=1;editable=1;locked=0;connectable=1;" parent="en180CTn0l9zymGrBvhz-27" edge="1">
          <mxGeometry width="80" relative="1" as="geometry">
            <mxPoint x="45" y="69.06" as="sourcePoint" />
            <mxPoint x="1015" y="69.06" as="targetPoint" />
            <Array as="points">
              <mxPoint x="545" y="69.06" />
            </Array>
          </mxGeometry>
        </mxCell>
        <mxCell id="en180CTn0l9zymGrBvhz-22" value="LOOP" style="shape=umlFrame;whiteSpace=wrap;html=1;pointerEvents=0;fillColor=#dae8fc;strokeColor=#6c8ebf;" parent="en180CTn0l9zymGrBvhz-27" vertex="1">
          <mxGeometry width="1060" height="92.08" as="geometry" />
        </mxCell>
        <mxCell id="DYl_nhM4-Qo1yMT7ztg8-2" value="aggiuntaServizio(Tipo, Data, Luogo, Menù, Propaga)" style="html=1;verticalAlign=bottom;endArrow=block;edgeStyle=elbowEdgeStyle;elbow=vertical;curved=0;rounded=0;" edge="1" parent="1" source="ziAq5ncUOEXPv-bApJY8-1" target="ziAq5ncUOEXPv-bApJY8-2">
          <mxGeometry width="80" relative="1" as="geometry">
            <mxPoint x="140.64" y="424.14060606060605" as="sourcePoint" />
            <mxPoint x="460.64" y="424.14060606060605" as="targetPoint" />
            <Array as="points">
              <mxPoint x="200" y="402.120404040404" />
              <mxPoint x="360" y="380.100202020202" />
              <mxPoint x="291.14" y="424.14060606060605" />
            </Array>
          </mxGeometry>
        </mxCell>
        <mxCell id="DYl_nhM4-Qo1yMT7ztg8-3" value="nuovo servizio" style="html=1;verticalAlign=bottom;endArrow=none;edgeStyle=elbowEdgeStyle;elbow=vertical;curved=0;rounded=0;startArrow=open;startFill=0;endFill=0;dashed=1;" edge="1" parent="1" source="ziAq5ncUOEXPv-bApJY8-1" target="ziAq5ncUOEXPv-bApJY8-2">
          <mxGeometry width="80" relative="1" as="geometry">
            <mxPoint x="140.64" y="457.17090909090905" as="sourcePoint" />
            <mxPoint x="460.64" y="457.17090909090905" as="targetPoint" />
            <Array as="points">
              <mxPoint x="190" y="435.1507070707071" />
              <mxPoint x="260" y="413.130505050505" />
            </Array>
          </mxGeometry>
        </mxCell>
        <mxCell id="en180CTn0l9zymGrBvhz-8" value="assegnazioneChef(Chef)" style="html=1;verticalAlign=bottom;endArrow=block;edgeStyle=elbowEdgeStyle;elbow=vertical;curved=0;rounded=0;" parent="1" source="ziAq5ncUOEXPv-bApJY8-1" edge="1" target="ziAq5ncUOEXPv-bApJY8-2">
          <mxGeometry width="80" relative="1" as="geometry">
            <mxPoint x="-215" y="529.52" as="sourcePoint" />
            <mxPoint x="745" y="529.52" as="targetPoint" />
            <Array as="points">
              <mxPoint x="360" y="529.0351515151515" />
              <mxPoint x="291.14" y="573.0755555555555" />
            </Array>
          </mxGeometry>
        </mxCell>
      </root>
    </mxGraphModel>
  </diagram>
</mxfile>
